<svg width="100" height="100" viewBox="0 0 100 100" fill="none" xmlns="http://www.w3.org/2000/svg">
<mask id="mask0_219_1173" style="mask-type:alpha" maskUnits="userSpaceOnUse" x="0" y="0" width="100" height="100">
<rect width="100" height="100" fill="#D9D9D9"/>
</mask>
<g mask="url(#mask0_219_1173)">
<path d="M70.1074 67.9854C69.3495 67.9854 68.7294 68.5992 68.7294 69.3635C68.7294 69.5702 68.5602 69.7456 68.3473 69.7456H25.1257C24.919 69.7456 24.7499 69.5764 24.7499 69.3635V36.6466C24.7499 36.4337 24.9128 36.2708 25.1257 36.2708C25.8837 36.2708 26.5038 35.6569 26.5038 34.8927C26.5038 34.1285 25.8899 33.5146 25.1257 33.5146C23.4031 33.5146 22 34.9178 22 36.6404V69.3509C22 71.0798 23.4031 72.4829 25.1257 72.4829H68.3473C70.0761 72.4829 71.4792 71.0798 71.4792 69.3509C71.4792 68.593 70.8654 67.9729 70.1012 67.9729L70.1074 67.9854Z" fill="#333333"/>
<path d="M77.9939 30.1257C77.9939 28.4031 76.5908 27 74.8682 27H31.6404C29.9178 27 28.5146 28.4031 28.5146 30.1257V62.8425C28.5146 63.6005 28.7965 64.2895 29.2538 64.8345C29.3039 64.9097 29.3603 64.9848 29.4292 65.0537C29.4918 65.1164 29.5545 65.1665 29.6234 65.2103C30.1683 65.6801 30.8699 65.9745 31.6466 65.9745H74.8744C75.6324 65.9745 76.3151 65.6927 76.8601 65.2417C76.9415 65.1915 77.0167 65.1289 77.0856 65.06C77.1545 64.9911 77.2172 64.9097 77.2673 64.8345C77.7183 64.2958 78.0002 63.6068 78.0002 62.8488V30.1257H77.9939ZM31.6404 29.7499H74.8682C75.0749 29.7499 75.244 29.919 75.244 30.1257V61.2703L58.8574 44.8837C58.3187 44.345 57.448 44.345 56.9156 44.8837L48.7536 53.0457L45.0954 49.3938C44.5567 48.8551 43.686 48.8551 43.1536 49.3938L31.2708 61.2703V30.1257C31.2708 29.919 31.4399 29.7499 31.6466 29.7499H31.6404ZM73.3022 63.2184H33.2064L44.1245 52.3128L47.7827 55.9647C48.3214 56.5034 49.1921 56.5034 49.7245 55.9647L57.8865 47.8027L73.3022 63.2184Z" fill="#333333"/>
<path d="M42.3701 45.1909C45.3142 45.1909 47.707 42.7981 47.707 39.854C47.707 36.9099 45.3142 34.5171 42.3701 34.5171C39.426 34.5171 37.0332 36.9099 37.0332 39.854C37.0332 42.7981 39.426 45.1909 42.3701 45.1909ZM42.3701 37.267C43.7983 37.267 44.9571 38.4258 44.9571 39.854C44.9571 41.2822 43.7983 42.441 42.3701 42.441C40.9419 42.441 39.7831 41.2822 39.7831 39.854C39.7831 38.4258 40.9419 37.267 42.3701 37.267Z" fill="#333333"/>
</g>
</svg>
