<svg width="100" height="100" viewBox="0 0 100 100" fill="none" xmlns="http://www.w3.org/2000/svg">
<mask id="mask0_219_1174" style="mask-type:alpha" maskUnits="userSpaceOnUse" x="0" y="0" width="100" height="100">
<rect width="100" height="100" fill="#D9D9D9"/>
</mask>
<g mask="url(#mask0_219_1174)">
<path d="M20.3814 51.0146H26.0122C26.7744 51.0146 27.3936 51.6338 27.3936 52.3961V53.4805C27.3936 54.2427 26.7744 54.8619 26.0122 54.8619H20.3814C19.6192 54.8619 19 54.2427 19 53.4805V52.3961C19 51.6338 19.6192 51.0146 20.3814 51.0146Z" fill="#333333"/>
<path d="M20.3814 51.0146H26.0122C26.7744 51.0146 27.3936 51.6338 27.3936 52.3961V53.4805C27.3936 54.2427 26.7744 54.8619 26.0122 54.8619H20.3814C19.6192 54.8619 19 54.2427 19 53.4805V52.3961C19 51.6338 19.6192 51.0146 20.3814 51.0146Z" fill="#333333"/>
<path d="M31.8465 56.2402L31.8433 56.2474L31.8536 56.2506C31.8504 56.2474 31.8465 56.2435 31.8465 56.2402ZM31.8465 56.2402L31.8433 56.2474L31.8536 56.2506C31.8504 56.2474 31.8465 56.2435 31.8465 56.2402Z" fill="#333333"/>
<path d="M31.8536 56.2506L31.8433 56.2474L31.8465 56.2402C31.8465 56.2435 31.8497 56.2474 31.8536 56.2506Z" fill="#333333"/>
<path d="M26.0128 31.7783H20.3814C19.6185 31.7783 19 32.3968 19 33.1598V34.2442C19 35.0071 19.6185 35.6256 20.3814 35.6256H26.0128C26.7758 35.6256 27.3943 35.0071 27.3943 34.2442V33.1598C27.3943 32.3968 26.7758 31.7783 26.0128 31.7783Z" fill="#333333"/>
<path d="M26.0128 31.7783H20.3814C19.6185 31.7783 19 32.3968 19 33.1598V34.2442C19 35.0071 19.6185 35.6256 20.3814 35.6256H26.0128C26.7758 35.6256 27.3943 35.0071 27.3943 34.2442V33.1598C27.3943 32.3968 26.7758 31.7783 26.0128 31.7783Z" fill="#333333"/>
<path d="M38.2363 38.7729V38.9476C38.2363 38.8883 38.2363 38.8322 38.2396 38.7729H38.2363Z" fill="#333333"/>
<path d="M64.4611 24H25.3029C24.1418 24 23.1973 24.9446 23.1973 26.1057V29.9458H26.013C27.5452 29.9458 28.7932 31.1945 28.7932 32.7261V33.8105C28.7932 35.3427 27.5445 36.5908 26.013 36.5908H23.1973V49.1821H26.013C27.5452 49.1821 28.7932 50.4309 28.7932 51.9624V53.0468C28.7932 54.579 27.5445 55.8271 26.013 55.8271H23.1973V59.6672C23.1973 60.8283 24.1418 61.7729 25.3029 61.7729H64.4618C65.6228 61.7729 66.5674 60.8283 66.5674 59.6672V26.1057C66.5674 24.9446 65.6228 24 64.4618 24H64.4611ZM62.3696 53.7395L53.8008 43.5269C53.4999 43.1667 53.1294 42.8871 52.7164 42.6944C52.3001 42.5018 51.8452 42.3974 51.3768 42.3974C50.4393 42.3974 49.5547 42.8104 48.9529 43.5269L41.1533 52.82L40.1353 50.7498C39.7996 50.0713 39.2468 49.5501 38.5857 49.2562C38.4736 49.2073 38.355 49.1615 38.2358 49.1267C37.9491 49.0359 37.6411 48.9869 37.3267 48.9831C36.1372 48.9798 35.0354 49.6267 34.4865 50.697L31.846 55.8071C31.6817 55.5623 31.5909 55.2684 31.5909 54.954V29.7712C31.5909 28.904 32.2977 28.1971 33.165 28.1971H60.7955C61.6628 28.1971 62.3696 28.9033 62.3696 29.7712V53.7401V53.7395Z" fill="#333333"/>
<path d="M64.4611 24H25.3029C24.1418 24 23.1973 24.9446 23.1973 26.1057V29.9458H26.013C27.5452 29.9458 28.7932 31.1945 28.7932 32.7261V33.8105C28.7932 35.3427 27.5445 36.5908 26.013 36.5908H23.1973V49.1821H26.013C27.5452 49.1821 28.7932 50.4309 28.7932 51.9624V53.0468C28.7932 54.579 27.5445 55.8271 26.013 55.8271H23.1973V59.6672C23.1973 60.8283 24.1418 61.7729 25.3029 61.7729H64.4618C65.6228 61.7729 66.5674 60.8283 66.5674 59.6672V26.1057C66.5674 24.9446 65.6228 24 64.4618 24H64.4611ZM62.3696 53.7395L53.8008 43.5269C53.4999 43.1667 53.1294 42.8871 52.7164 42.6944C52.3001 42.5018 51.8452 42.3974 51.3768 42.3974C50.4393 42.3974 49.5547 42.8104 48.9529 43.5269L41.1533 52.82L40.1353 50.7498C39.7996 50.0713 39.2468 49.5501 38.5857 49.2562C38.4736 49.2073 38.355 49.1615 38.2358 49.1267C37.9491 49.0359 37.6411 48.9869 37.3267 48.9831C36.1372 48.9798 35.0354 49.6267 34.4865 50.697L31.846 55.8071C31.846 55.8103 31.8493 55.8142 31.8531 55.8174L31.8428 55.8142L31.846 55.8071C31.6817 55.5623 31.5909 55.2684 31.5909 54.954V29.7712C31.5909 28.904 32.2977 28.1971 33.165 28.1971H60.7955C61.6628 28.1971 62.3696 28.9033 62.3696 29.7712V53.7401V53.7395Z" fill="#333333"/>
<path d="M44.1822 38.5149C44.1822 38.5742 44.1822 38.6302 44.1789 38.6895C44.0881 40.2494 42.7904 41.4878 41.2092 41.4878C40.0727 41.4878 39.0862 40.848 38.5862 39.9105C38.3626 39.4943 38.2363 39.0188 38.2363 38.5149C38.2363 38.4556 38.2363 38.3996 38.2396 38.3403C38.3304 36.7804 39.6281 35.542 41.2092 35.542C42.7904 35.542 44.0874 36.7804 44.1789 38.3403C44.1822 38.3996 44.1822 38.4556 44.1822 38.5149Z" fill="#333333"/>
<path d="M73.5623 38.6899V65.296C73.5623 67.0209 72.1641 68.4191 70.4393 68.4191H38.5864V64.5718H64.4612C67.1693 64.5718 69.3645 62.3766 69.3645 59.6685V38.6899H73.5617H73.5623Z" fill="#333333"/>
<path d="M81.2566 46.0347V72.6408C81.2566 74.3656 79.8585 75.7638 78.1336 75.7638H46.2808V71.9165H72.1556C74.8637 71.9165 77.0589 69.7213 77.0589 67.0132V46.0347H81.256H81.2566Z" fill="#333333"/>
</g>
</svg>
