<svg width="100" height="100" viewBox="0 0 100 100" fill="none" xmlns="http://www.w3.org/2000/svg">
<mask id="mask0_219_1172" style="mask-type:alpha" maskUnits="userSpaceOnUse" x="0" y="0" width="100" height="100">
<rect width="100" height="100" fill="#D9D9D9"/>
</mask>
<g mask="url(#mask0_219_1172)">
<path d="M87.6003 48.6255L81.4664 37.638C80.9249 36.6678 79.9127 36.0686 78.8151 36.0686H67.836L67.7448 32.8768C67.6984 31.2735 66.4082 30 64.8313 30H20.5096C19.8362 30 19.2918 30.555 19.2918 31.2382C19.2918 31.9213 19.8377 32.4763 20.5096 32.4763H39.5557C40.229 32.4763 40.7735 33.0314 40.7735 33.7145C40.7735 34.3976 40.2276 34.9527 39.5557 34.9527H15.9569C15.2836 34.9527 14.7391 35.5077 14.7391 36.1908C14.7391 36.8739 15.285 37.429 15.9569 37.429H34.6367C35.31 37.429 35.8545 37.984 35.8545 38.6672C35.8545 39.3503 35.3086 39.9053 34.6367 39.9053H24.3411C23.6677 39.9053 23.1233 40.4604 23.1233 41.1435C23.1233 41.8281 23.6692 42.3816 24.3411 42.3816H42.9369C43.6102 42.3816 44.1547 42.9367 44.1547 43.6198C44.1547 44.3029 43.6088 44.858 42.9369 44.858H14.2178C13.5445 44.858 13 45.413 13 46.0961C13 46.7793 13.5459 47.3343 14.2178 47.3343H37.6269C38.3002 47.3343 38.8447 47.8893 38.8447 48.5725C38.8447 49.2556 38.2988 49.8106 37.6269 49.8106H21.277C20.6037 49.8106 20.0592 50.3657 20.0592 51.0488C20.0592 51.7319 20.6051 52.287 21.277 52.287H30.7212C31.3945 52.287 31.939 52.842 31.939 53.5251C31.939 54.2097 31.3931 54.7633 30.7212 54.7633H27.3516L27.3791 59.4966C27.3791 61.2073 28.7431 62.5957 30.4272 62.5957H33.9764C33.9764 58.148 37.5226 54.541 41.8986 54.541C46.2746 54.541 49.8209 58.1465 49.8209 62.5957H66.2967C66.2967 58.148 69.843 54.541 74.219 54.541C78.595 54.541 82.1412 58.1465 82.1412 62.5957H84.9519C86.6345 62.5957 88 61.2088 88 59.4966V50.1448C88 49.6089 87.8639 49.0819 87.6032 48.6152L87.6003 48.6255ZM71.0405 46.738V39.6271H77.7464C78.1605 39.6271 78.5428 39.8494 78.7528 40.213L82.522 46.738H71.0405Z" fill="#333333"/>
<path d="M41.8982 56.209C38.4244 56.209 35.6079 59.0725 35.6079 62.6045C35.6079 66.1364 38.4244 68.9999 41.8982 68.9999C45.3721 68.9999 48.1885 66.1364 48.1885 62.6045C48.1885 59.0725 45.3721 56.209 41.8982 56.209ZM41.8982 65.443C40.3589 65.443 39.1078 64.1709 39.1078 62.6059C39.1078 61.0409 40.3589 59.7689 41.8982 59.7689C43.4375 59.7689 44.6886 61.0409 44.6886 62.6059C44.6886 64.1709 43.4375 65.443 41.8982 65.443Z" fill="#333333"/>
<path d="M74.2171 56.209C70.7432 56.209 67.9268 59.0725 67.9268 62.6045C67.9268 66.1364 70.7432 68.9999 74.2171 68.9999C77.6909 68.9999 80.5074 66.1364 80.5074 62.6045C80.5074 59.0725 77.6909 56.209 74.2171 56.209ZM74.2171 65.443C72.6778 65.443 71.4267 64.1709 71.4267 62.6059C71.4267 61.0409 72.6778 59.7689 74.2171 59.7689C75.7563 59.7689 77.0074 61.0409 77.0074 62.6059C77.0074 64.1709 75.7563 65.443 74.2171 65.443Z" fill="#333333"/>
</g>
</svg>
