<svg width="100" height="100" viewBox="0 0 100 100" fill="none" xmlns="http://www.w3.org/2000/svg">
<mask id="mask0_219_1170" style="mask-type:alpha" maskUnits="userSpaceOnUse" x="0" y="0" width="100" height="100">
<rect width="100" height="100" fill="#D9D9D9"/>
</mask>
<g mask="url(#mask0_219_1170)">
<path d="M79.0167 22H20.5389C19.6894 22 19 22.6894 19 23.5389V75.8611C19 76.7106 19.6894 77.4 20.5389 77.4H79.0167C79.8661 77.4 80.5556 76.7106 80.5556 75.8611V23.5389C80.5556 22.6894 79.8661 22 79.0167 22ZM22.0778 25.0778H25.1556V74.3222H22.0778V25.0778ZM77.4778 74.3222H28.2333V25.0778H77.4778V74.3222Z" fill="#333333"/>
<path d="M52.8555 71.2446C64.7357 71.2446 74.3999 61.5773 74.3999 49.7002C74.3999 37.8231 64.7357 28.1558 52.8555 28.1558C40.9753 28.1558 31.311 37.8231 31.311 49.7002C31.311 61.5773 40.9753 71.2446 52.8555 71.2446ZM52.8555 31.2335C63.0398 31.2335 71.3221 39.5158 71.3221 49.7002C71.3221 59.8846 63.0398 68.1669 52.8555 68.1669C42.6711 68.1669 34.3888 59.8846 34.3888 49.7002C34.3888 39.5158 42.6711 31.2335 52.8555 31.2335Z" fill="#333333"/>
<path d="M52.8558 55.856C56.2505 55.856 59.0113 53.0953 59.0113 49.7005C59.0113 46.3057 56.2505 43.5449 52.8558 43.5449C49.461 43.5449 46.7002 46.3057 46.7002 49.7005C46.7002 53.0953 49.461 55.856 52.8558 55.856ZM52.8558 46.6227C54.5516 46.6227 55.9335 48.0015 55.9335 49.7005C55.9335 51.3994 54.5516 52.7783 52.8558 52.7783C51.1599 52.7783 49.778 51.3994 49.778 49.7005C49.778 48.0015 51.1599 46.6227 52.8558 46.6227Z" fill="#333333"/>
</g>
</svg>
