<svg width="100" height="100" viewBox="0 0 100 100" fill="none" xmlns="http://www.w3.org/2000/svg">
<mask id="mask0_293_1169" style="mask-type:alpha" maskUnits="userSpaceOnUse" x="0" y="0" width="100" height="100">
<rect width="100" height="100" fill="#D9D9D9"/>
</mask>
<g mask="url(#mask0_293_1169)">
<path d="M79.9052 25H20.0948C17.8333 25 16 26.8242 16 29.0745V70.6816C16 72.9319 17.8333 74.7561 20.0948 74.7561H79.9052C82.1667 74.7561 84 72.9319 84 70.6816V29.0745C84 26.8242 82.1667 25 79.9052 25Z" fill="#333333"/>
<path d="M31.3414 45.7317C34.3184 45.7317 36.7317 43.3184 36.7317 40.3414C36.7317 37.3645 34.3184 34.9512 31.3414 34.9512C28.3645 34.9512 25.9512 37.3645 25.9512 40.3414C25.9512 43.3184 28.3645 45.7317 31.3414 45.7317Z" fill="white"/>
<path d="M80.6827 68.4623V71.439H19.3169V69.211L33.4421 52.5626C34.0059 51.8979 35.0167 51.8566 35.6322 52.4738L45.4402 62.2982L60.3954 42.1868C61.0073 41.3639 62.2459 41.3898 62.8229 42.2372L80.682 68.4616L80.6827 68.4623Z" fill="white"/>
</g>
</svg>
