<svg width="100" height="100" viewBox="0 0 100 100" fill="none" xmlns="http://www.w3.org/2000/svg">
<mask id="mask0_219_1171" style="mask-type:alpha" maskUnits="userSpaceOnUse" x="0" y="0" width="100" height="100">
<rect width="100" height="100" fill="#D9D9D9"/>
</mask>
<g mask="url(#mask0_219_1171)">
<path d="M43.6091 36.2383L58.4613 21.3935C55.6364 20.4911 52.6295 20 49.5093 20C45.4066 20 41.4978 20.8434 37.9443 22.3626V41.9003L43.5754 36.272C43.5866 36.2602 43.5974 36.2495 43.6091 36.2383Z" fill="#333333"/>
<path d="M75.6982 35.9605C72.4651 29.7289 67.0777 24.7927 60.5255 22.1431L46.7012 35.9605H75.6982Z" fill="#333333"/>
<path d="M35.9553 44.3V23.3086C29.7304 26.5413 24.7987 31.9232 22.1484 38.4683L35.9553 52.2915V44.3Z" fill="#333333"/>
<path d="M63.0444 75.6972C69.2744 72.463 74.209 67.0739 76.8577 60.5196L63.0444 46.7183V75.6972Z" fill="#333333"/>
<path d="M36.263 55.4145C36.2536 55.4054 36.245 55.3968 36.236 55.3874L21.3982 40.5332C20.493 43.3626 20 46.3745 20 49.5002C20 53.5973 20.8416 57.5013 22.3583 61.0506H41.8929L36.263 55.4145Z" fill="#333333"/>
<path d="M76.6432 37.9497H57.0967L57.93 38.7834L62.7524 43.5954C62.7906 43.6342 62.825 43.6744 62.8567 43.7184L77.6063 58.4564C78.5088 55.6302 79 52.6218 79 49.5001C79 45.403 78.1589 41.4991 76.6432 37.9497Z" fill="#333333"/>
<path d="M49.5096 79.0009C53.6056 79.0009 57.5082 78.1595 61.0565 76.6433V57.1021L40.5566 77.6088C43.382 78.5103 46.3891 79.0009 49.5096 79.0009Z" fill="#333333"/>
<path d="M23.3047 63.04C26.5407 69.2733 31.9334 74.2106 38.4921 76.8597L52.3071 63.04H23.3047Z" fill="#333333"/>
</g>
</svg>
