<?xml version="1.0" encoding="UTF-8"?>
<svg id="_レイヤー_2" data-name="レイヤー 2" xmlns="http://www.w3.org/2000/svg" viewBox="0 0 400 4">
  <defs>
    <style>
      .cls-1 {
        fill: none;
        stroke: #ff8c71;
        stroke-miterlimit: 10;
      }
    </style>
  </defs>
  <g id="_レイヤー_1-2" data-name="レイヤー 1">
    <path class="cls-1" d="M0,.5C3.92,.5,3.92,3.5,7.84,3.5S11.76,.5,15.68,.5s3.92,3,7.84,3,3.92-3,7.84-3,3.92,3,7.84,3,3.92-3,7.84-3,3.92,3,7.84,3,3.92-3,7.84-3,3.92,3,7.84,3,3.92-3,7.84-3,3.92,3,7.84,3,3.92-3,7.84-3,3.92,3,7.84,3,3.92-3,7.84-3,3.92,3,7.84,3,3.92-3,7.84-3,3.92,3,7.84,3,3.92-3,7.84-3,3.92,3,7.84,3,3.92-3,7.84-3,3.92,3,7.84,3,3.92-3,7.84-3,3.92,3,7.84,3,3.92-3,7.84-3,3.92,3,7.84,3,3.92-3,7.84-3,3.92,3,7.84,3,3.92-3,7.84-3,3.92,3,7.84,3,3.92-3,7.84-3,3.92,3,7.84,3,3.92-3,7.84-3,3.92,3,7.84,3,3.92-3,7.84-3,3.92,3,7.84,3,3.92-3,7.84-3,3.92,3,7.84,3,3.92-3,7.85-3,3.92,3,7.84,3,3.92-3,7.84-3,3.92,3,7.85,3,3.92-3,7.85-3,3.92,3,7.85,3,3.92-3,7.84-3,3.92,3,7.84,3,3.92-3,7.84-3,3.92,3,7.85,3,3.92-3,7.85-3,3.92,3,7.85,3,3.93-3,7.85-3,3.93,3,7.85,3"/>
  </g>
</svg>