<?xml version="1.0" encoding="UTF-8"?>
<svg id="_レイヤー_2" data-name="レイヤー 2" xmlns="http://www.w3.org/2000/svg" viewBox="0 0 1000 5">
  <defs>
    <style>
      .cls-1 {
        fill: #ff8c71;
      }
    </style>
  </defs>
  <g id="_レイヤー_1-2" data-name="レイヤー 1">
    <path class="cls-1" d="M1000,5c-2.66,0-3.99-1.07-5.27-2.11-1.2-.97-2.34-1.89-4.64-1.89s-3.44,.92-4.64,1.89c-1.29,1.04-2.62,2.11-5.27,2.11s-3.98-1.07-5.27-2.11c-1.2-.97-2.34-1.89-4.64-1.89s-3.44,.92-4.64,1.89c-1.29,1.04-2.62,2.11-5.27,2.11s-3.98-1.07-5.27-2.11c-1.2-.97-2.34-1.89-4.64-1.89s-3.43,.92-4.64,1.89c-1.29,1.04-2.61,2.11-5.27,2.11s-3.98-1.07-5.27-2.11c-1.2-.97-2.34-1.89-4.64-1.89s-3.44,.92-4.64,1.89c-1.29,1.04-2.61,2.11-5.27,2.11s-3.98-1.07-5.27-2.11c-1.2-.97-2.34-1.89-4.64-1.89s-3.44,.92-4.64,1.89c-1.29,1.04-2.61,2.11-5.27,2.11s-3.98-1.07-5.27-2.11c-1.2-.97-2.34-1.89-4.64-1.89s-3.44,.92-4.64,1.89c-1.29,1.04-2.61,2.11-5.27,2.11s-3.98-1.07-5.27-2.11c-1.2-.97-2.34-1.89-4.64-1.89s-3.44,.92-4.64,1.89c-1.29,1.04-2.61,2.11-5.27,2.11s-3.98-1.07-5.27-2.11c-1.2-.97-2.34-1.89-4.64-1.89s-3.43,.92-4.64,1.89c-1.29,1.04-2.61,2.11-5.26,2.11s-3.98-1.07-5.27-2.11c-1.2-.97-2.34-1.89-4.64-1.89s-3.43,.92-4.64,1.89c-1.28,1.04-2.61,2.11-5.26,2.11s-3.98-1.07-5.27-2.11c-1.2-.97-2.34-1.89-4.64-1.89s-3.43,.92-4.64,1.89c-1.28,1.04-2.61,2.11-5.26,2.11s-3.98-1.07-5.27-2.11c-1.2-.97-2.34-1.89-4.64-1.89s-3.43,.92-4.63,1.89c-1.28,1.04-2.61,2.11-5.26,2.11s-3.98-1.07-5.27-2.11c-1.2-.97-2.34-1.89-4.64-1.89s-3.43,.92-4.64,1.89c-1.29,1.04-2.61,2.11-5.27,2.11s-3.98-1.07-5.27-2.11c-1.2-.97-2.34-1.89-4.64-1.89s-3.43,.92-4.64,1.89c-1.29,1.04-2.61,2.11-5.27,2.11s-3.98-1.07-5.27-2.11c-1.2-.97-2.34-1.89-4.64-1.89s-3.44,.92-4.64,1.89c-1.29,1.04-2.61,2.11-5.27,2.11s-3.98-1.07-5.27-2.11c-1.2-.97-2.34-1.89-4.64-1.89s-3.44,.92-4.64,1.89c-1.29,1.04-2.61,2.11-5.27,2.11s-3.98-1.07-5.26-2.11c-1.2-.97-2.34-1.89-4.64-1.89s-3.43,.92-4.64,1.89c-1.29,1.04-2.61,2.11-5.27,2.11s-3.98-1.07-5.27-2.11c-1.2-.97-2.34-1.89-4.64-1.89s-3.43,.92-4.64,1.89c-1.29,1.04-2.61,2.11-5.27,2.11s-3.98-1.07-5.27-2.11c-1.2-.97-2.34-1.89-4.64-1.89s-3.43,.92-4.64,1.89c-1.28,1.04-2.61,2.11-5.26,2.11s-3.98-1.07-5.27-2.11c-1.2-.97-2.34-1.89-4.64-1.89s-3.43,.92-4.64,1.89c-1.29,1.04-2.61,2.11-5.27,2.11s-3.98-1.07-5.26-2.11c-1.2-.97-2.34-1.89-4.64-1.89s-3.43,.92-4.64,1.89c-1.29,1.04-2.61,2.11-5.27,2.11s-3.98-1.07-5.27-2.11c-1.2-.97-2.34-1.89-4.64-1.89s-3.43,.92-4.63,1.89c-1.28,1.04-2.61,2.11-5.26,2.11s-3.98-1.07-5.26-2.11c-1.2-.97-2.34-1.89-4.64-1.89s-3.44,.92-4.64,1.89c-1.29,1.04-2.61,2.11-5.27,2.11s-3.98-1.07-5.26-2.11c-1.2-.97-2.34-1.89-4.64-1.89s-3.43,.92-4.63,1.89c-1.28,1.04-2.61,2.11-5.26,2.11s-3.98-1.07-5.26-2.11c-1.2-.97-2.34-1.89-4.64-1.89s-3.44,.92-4.64,1.89c-1.29,1.04-2.61,2.11-5.27,2.11s-3.98-1.07-5.26-2.11c-1.2-.97-2.34-1.89-4.64-1.89s-3.43,.92-4.63,1.89c-1.28,1.04-2.61,2.11-5.26,2.11s-3.98-1.07-5.26-2.11c-1.2-.97-2.34-1.89-4.64-1.89s-3.43,.92-4.64,1.89c-1.29,1.04-2.61,2.11-5.27,2.11s-3.98-1.07-5.26-2.11c-1.2-.97-2.34-1.89-4.64-1.89s-3.43,.92-4.63,1.89c-1.28,1.04-2.61,2.11-5.26,2.11s-3.98-1.07-5.26-2.11c-1.2-.97-2.34-1.89-4.63-1.89s-3.43,.92-4.63,1.89c-1.28,1.04-2.61,2.11-5.26,2.11s-3.98-1.07-5.26-2.11c-1.2-.97-2.34-1.89-4.64-1.89s-3.43,.92-4.64,1.89c-1.28,1.04-2.61,2.11-5.26,2.11s-3.98-1.07-5.26-2.11c-1.2-.97-2.34-1.89-4.63-1.89s-3.43,.92-4.63,1.89c-1.28,1.04-2.61,2.11-5.26,2.11s-3.98-1.07-5.26-2.11c-1.2-.97-2.34-1.89-4.63-1.89s-3.43,.92-4.63,1.89c-1.28,1.04-2.61,2.11-5.26,2.11s-3.98-1.07-5.26-2.11c-1.2-.97-2.34-1.89-4.64-1.89s-3.43,.92-4.64,1.89c-1.29,1.04-2.61,2.11-5.27,2.11s-3.98-1.07-5.26-2.11c-1.2-.97-2.34-1.89-4.63-1.89s-3.43,.92-4.63,1.89c-1.28,1.04-2.61,2.11-5.26,2.11s-3.98-1.07-5.26-2.11c-1.2-.97-2.34-1.89-4.63-1.89s-3.43,.92-4.63,1.89c-1.28,1.04-2.61,2.11-5.26,2.11s-3.98-1.07-5.26-2.11c-1.2-.97-2.34-1.89-4.63-1.89s-3.43,.92-4.64,1.89c-1.28,1.04-2.61,2.11-5.26,2.11s-3.98-1.07-5.26-2.11c-1.2-.97-2.34-1.89-4.64-1.89s-3.43,.92-4.63,1.89c-1.28,1.04-2.61,2.11-5.26,2.11s-3.98-1.07-5.26-2.11c-1.2-.97-2.34-1.89-4.63-1.89s-3.43,.92-4.63,1.89c-1.28,1.04-2.61,2.11-5.26,2.11s-3.98-1.07-5.26-2.11c-1.2-.97-2.34-1.89-4.63-1.89s-3.43,.92-4.63,1.89c-1.28,1.04-2.61,2.11-5.26,2.11s-3.98-1.07-5.26-2.11c-1.2-.97-2.34-1.89-4.64-1.89s-3.43,.92-4.64,1.89c-1.28,1.04-2.61,2.11-5.26,2.11s-3.98-1.07-5.27-2.11c-1.2-.97-2.34-1.89-4.64-1.89s-3.43,.92-4.64,1.89c-1.28,1.04-2.61,2.11-5.26,2.11s-3.98-1.07-5.26-2.11c-1.2-.97-2.34-1.89-4.64-1.89s-3.43,.92-4.64,1.89c-1.28,1.04-2.61,2.11-5.26,2.11s-3.98-1.07-5.26-2.11c-1.2-.97-2.34-1.89-4.64-1.89s-3.43,.92-4.64,1.89c-1.28,1.04-2.61,2.11-5.27,2.11s-3.98-1.07-5.26-2.11c-1.2-.97-2.34-1.89-4.64-1.89s-3.43,.92-4.64,1.89c-1.28,1.04-2.61,2.11-5.26,2.11s-3.98-1.07-5.26-2.11c-1.2-.97-2.34-1.89-4.64-1.89s-3.43,.92-4.64,1.89c-1.28,1.04-2.61,2.11-5.26,2.11s-3.98-1.07-5.27-2.11c-1.2-.97-2.34-1.89-4.64-1.89s-3.43,.92-4.64,1.89c-1.28,1.04-2.61,2.11-5.26,2.11s-3.98-1.07-5.26-2.11c-1.2-.97-2.34-1.89-4.64-1.89s-3.43,.92-4.63,1.89c-1.28,1.04-2.61,2.11-5.26,2.11s-3.98-1.07-5.26-2.11c-1.2-.97-2.34-1.89-4.64-1.89s-3.43,.92-4.64,1.89c-1.28,1.04-2.61,2.11-5.26,2.11s-3.98-1.07-5.26-2.11c-1.2-.97-2.34-1.89-4.64-1.89s-3.43,.92-4.64,1.89c-1.28,1.04-2.61,2.11-5.26,2.11s-3.98-1.07-5.26-2.11c-1.2-.97-2.34-1.89-4.63-1.89s-3.43,.92-4.63,1.89c-1.28,1.04-2.61,2.11-5.26,2.11s-3.98-1.07-5.26-2.11c-1.2-.97-2.34-1.89-4.63-1.89s-3.43,.92-4.64,1.89c-1.28,1.04-2.61,2.11-5.26,2.11s-3.98-1.07-5.26-2.11C3.43,1.92,2.3,1,0,1V0C2.65,0,3.98,1.07,5.27,2.11c1.2,.97,2.34,1.89,4.64,1.89s3.43-.92,4.64-1.89c1.28-1.04,2.61-2.11,5.26-2.11s3.98,1.07,5.26,2.11c1.2,.97,2.34,1.89,4.64,1.89s3.43-.92,4.63-1.89c1.28-1.04,2.61-2.11,5.26-2.11s3.98,1.07,5.26,2.11c1.2,.97,2.34,1.89,4.64,1.89s3.43-.92,4.64-1.89c1.28-1.04,2.61-2.11,5.26-2.11s3.98,1.07,5.26,2.11c1.2,.97,2.34,1.89,4.64,1.89s3.43-.92,4.64-1.89c1.28-1.04,2.61-2.11,5.26-2.11s3.98,1.07,5.26,2.11c1.2,.97,2.34,1.89,4.63,1.89s3.43-.92,4.64-1.89c1.28-1.04,2.61-2.11,5.26-2.11s3.98,1.07,5.26,2.11c1.2,.97,2.34,1.89,4.63,1.89s3.43-.92,4.64-1.89c1.28-1.04,2.61-2.11,5.26-2.11s3.98,1.07,5.27,2.11c1.2,.97,2.34,1.89,4.64,1.89s3.43-.92,4.64-1.89c1.28-1.04,2.61-2.11,5.26-2.11s3.98,1.07,5.26,2.11c1.2,.97,2.34,1.89,4.63,1.89s3.43-.92,4.64-1.89c1.28-1.04,2.61-2.11,5.26-2.11s3.98,1.07,5.26,2.11c1.2,.97,2.34,1.89,4.64,1.89s3.43-.92,4.64-1.89c1.28-1.04,2.61-2.11,5.27-2.11s3.98,1.07,5.26,2.11c1.2,.97,2.34,1.89,4.64,1.89s3.43-.92,4.64-1.89c1.28-1.04,2.61-2.11,5.26-2.11s3.98,1.07,5.26,2.11c1.2,.97,2.34,1.89,4.64,1.89s3.43-.92,4.64-1.89c1.28-1.04,2.61-2.11,5.26-2.11s3.98,1.07,5.27,2.11c1.2,.97,2.34,1.89,4.64,1.89s3.43-.92,4.64-1.89c1.28-1.04,2.61-2.11,5.26-2.11s3.98,1.07,5.26,2.11c1.2,.97,2.34,1.89,4.64,1.89s3.43-.92,4.63-1.89c1.28-1.04,2.61-2.11,5.26-2.11s3.98,1.07,5.26,2.11c1.2,.97,2.34,1.89,4.63,1.89s3.43-.92,4.63-1.89c1.28-1.04,2.61-2.11,5.26-2.11s3.98,1.07,5.26,2.11c1.2,.97,2.34,1.89,4.63,1.89s3.43-.92,4.63-1.89c1.28-1.04,2.61-2.11,5.26-2.11s3.98,1.07,5.27,2.11c1.2,.97,2.34,1.89,4.64,1.89s3.43-.92,4.64-1.89c1.28-1.04,2.61-2.11,5.26-2.11s3.98,1.07,5.26,2.11c1.2,.97,2.34,1.89,4.63,1.89s3.43-.92,4.63-1.89c1.28-1.04,2.61-2.11,5.26-2.11s3.98,1.07,5.26,2.11c1.2,.97,2.34,1.89,4.63,1.89s3.43-.92,4.63-1.89c1.28-1.04,2.61-2.11,5.26-2.11s3.98,1.07,5.26,2.11c1.2,.97,2.34,1.89,4.63,1.89s3.43-.92,4.64-1.89c1.29-1.04,2.61-2.11,5.26-2.11s3.98,1.07,5.26,2.11c1.2,.97,2.34,1.89,4.64,1.89s3.43-.92,4.63-1.89c1.28-1.04,2.61-2.11,5.26-2.11s3.98,1.07,5.26,2.11c1.2,.97,2.34,1.89,4.63,1.89s3.43-.92,4.63-1.89c1.28-1.04,2.61-2.11,5.26-2.11s3.98,1.07,5.26,2.11c1.2,.97,2.34,1.89,4.63,1.89s3.43-.92,4.64-1.89c1.28-1.04,2.61-2.11,5.26-2.11s3.98,1.07,5.27,2.11c1.2,.97,2.34,1.89,4.64,1.89s3.43-.92,4.63-1.89c1.28-1.04,2.61-2.11,5.26-2.11s3.98,1.07,5.26,2.11c1.2,.97,2.34,1.89,4.63,1.89s3.43-.92,4.63-1.89c1.28-1.04,2.61-2.11,5.26-2.11s3.98,1.07,5.26,2.11c1.2,.97,2.34,1.89,4.64,1.89s3.43-.92,4.64-1.89c1.29-1.04,2.61-2.11,5.26-2.11s3.98,1.07,5.26,2.11c1.2,.97,2.34,1.89,4.63,1.89s3.43-.92,4.63-1.89c1.28-1.04,2.61-2.11,5.26-2.11s3.98,1.07,5.26,2.11c1.2,.97,2.34,1.89,4.63,1.89s3.43-.92,4.64-1.89c1.29-1.04,2.61-2.11,5.27-2.11s3.98,1.07,5.26,2.11c1.2,.97,2.34,1.89,4.64,1.89s3.43-.92,4.63-1.89c1.28-1.04,2.61-2.11,5.26-2.11s3.98,1.07,5.26,2.11c1.2,.97,2.34,1.89,4.64,1.89s3.43-.92,4.64-1.89c1.29-1.04,2.61-2.11,5.27-2.11s3.98,1.07,5.26,2.11c1.2,.97,2.34,1.89,4.64,1.89s3.43-.92,4.64-1.89c1.28-1.04,2.61-2.11,5.26-2.11s3.98,1.07,5.27,2.11c1.2,.97,2.34,1.89,4.64,1.89s3.43-.92,4.64-1.89c1.29-1.04,2.61-2.11,5.26-2.11s3.98,1.07,5.26,2.11c1.2,.97,2.34,1.89,4.64,1.89s3.43-.92,4.64-1.89c1.29-1.04,2.61-2.11,5.27-2.11s3.98,1.07,5.27,2.11c1.2,.97,2.34,1.89,4.64,1.89s3.43-.92,4.64-1.89c1.29-1.04,2.61-2.11,5.26-2.11s3.98,1.07,5.27,2.11c1.2,.97,2.34,1.89,4.64,1.89s3.43-.92,4.64-1.89c1.29-1.04,2.61-2.11,5.27-2.11s3.98,1.07,5.26,2.11c1.2,.97,2.34,1.89,4.64,1.89s3.44-.92,4.64-1.89c1.29-1.04,2.61-2.11,5.27-2.11s3.98,1.07,5.27,2.11c1.2,.97,2.34,1.89,4.64,1.89s3.44-.92,4.64-1.89c1.29-1.04,2.61-2.11,5.27-2.11s3.98,1.07,5.27,2.11c1.2,.97,2.34,1.89,4.64,1.89s3.44-.92,4.64-1.89c1.29-1.04,2.61-2.11,5.27-2.11s3.98,1.07,5.27,2.11c1.2,.97,2.34,1.89,4.64,1.89s3.43-.92,4.64-1.89c1.29-1.04,2.61-2.11,5.27-2.11s3.98,1.07,5.27,2.11c1.2,.97,2.34,1.89,4.64,1.89s3.43-.92,4.64-1.89c1.29-1.04,2.61-2.11,5.27-2.11s3.98,1.07,5.27,2.11c1.2,.97,2.34,1.89,4.64,1.89s3.43-.92,4.63-1.89c1.28-1.04,2.61-2.11,5.26-2.11s3.98,1.07,5.27,2.11c1.2,.97,2.34,1.89,4.64,1.89s3.43-.92,4.64-1.89c1.28-1.04,2.61-2.11,5.26-2.11s3.98,1.07,5.26,2.11c1.2,.97,2.34,1.89,4.64,1.89s3.43-.92,4.64-1.89c1.28-1.04,2.61-2.11,5.26-2.11s3.98,1.07,5.27,2.11c1.2,.97,2.34,1.89,4.64,1.89s3.43-.92,4.64-1.89c1.29-1.04,2.61-2.11,5.27-2.11s3.98,1.07,5.27,2.11c1.2,.97,2.34,1.89,4.64,1.89s3.44-.92,4.64-1.89c1.29-1.04,2.61-2.11,5.27-2.11s3.98,1.07,5.27,2.11c1.2,.97,2.34,1.89,4.64,1.89s3.44-.92,4.64-1.89c1.29-1.04,2.61-2.11,5.27-2.11s3.98,1.07,5.27,2.11c1.2,.97,2.34,1.89,4.64,1.89s3.44-.92,4.64-1.89c1.29-1.04,2.61-2.11,5.27-2.11s3.98,1.07,5.27,2.11c1.2,.97,2.34,1.89,4.64,1.89s3.44-.92,4.64-1.89c1.29-1.04,2.61-2.11,5.27-2.11s3.98,1.07,5.27,2.11c1.2,.97,2.34,1.89,4.64,1.89s3.44-.92,4.64-1.89c1.29-1.04,2.61-2.11,5.27-2.11s3.98,1.07,5.27,2.11c1.2,.97,2.34,1.89,4.64,1.89s3.44-.92,4.64-1.89c1.29-1.04,2.62-2.11,5.27-2.11s3.98,1.07,5.27,2.11c1.2,.97,2.34,1.89,4.64,1.89s3.44-.92,4.64-1.89c1.29-1.04,2.62-2.11,5.27-2.11s3.99,1.07,5.27,2.11c1.2,.97,2.34,1.89,4.64,1.89v1Z"/>
  </g>
</svg>